<svg id="1446c938-cdad-4966-a7d1-774f2f0ed746" data-name="Calque 1" xmlns="http://www.w3.org/2000/svg" width="1000" height="1206" viewBox="0 0 1000 1206"><title>Resin Code alt 2</title><path d="M880.7341,630.30843,822.96219,530.2458l-74.37944,42.94348,57.77191,100.06214c14.65023,25.37569,4.88018,47.97865-.001,56.43205C801.47351,738.13687,786.95886,758,757.6584,758H550V714.65332l-148.75889,85.886L550,886.42528V843H757.6584c51.377,0,97.38574-26.32251,123.07474-70.816C906.42213,727.68994,906.42213,674.80341,880.7341,630.30843Z"/><path d="M376.92487,184.03227,319.15314,284.09493l74.379,42.94323,57.77215-100.0629c14.65046-25.37508,38.93483-28.1153,48.69584-28.11456,9.76095-.00034,34.04576,2.73889,48.69647,28.11468L652.73233,407.17051l-37.34058,21.47162L764,514.52811v-171.772l-37.03887,21.47137L623.00075,184.03239c-25.689-44.49464-71.66129-71.0582-123.03825-71.05767C448.585,112.9744,402.6129,139.53818,376.92487,184.03227Z"/><path d="M242.34191,843H358V758H242.34191c-29.30069,0-43.81508-19.86326-48.69584-28.31632s-14.65044-30.95566-.00021-56.3306l104.10005-180.246L335,514.52829v-171.772l-148.823,85.886,37.15741,21.47134L119.28244,630.3092c-25.68851,44.4938-25.69667,97.37991-.0078,141.87448C144.96309,816.678,190.96446,843,242.34191,843Z"/><path d="M537.51758,625.01953c-7.61621,7.61523-19.75488,13.80273-37.36719,13.80273s-30.46484-6.1875-37.84375-13.56641c-10.47168-10.4707-12.85156-22.84766-13.80371-35.22461h30.94043c1.666,13.32813,7.85449,20.94531,20.707,20.94531,5.9502,0,10.94824-1.666,14.75586-5.47461,5.47461-5.47461,6.66406-14.51758,6.66406-25.22852,0-19.51562-5.71094-30.46484-20.70605-30.46484-12.61426,0-18.32617,7.14063-20.46777,13.80469H452.07324V467.93359h96.62988v27.84766H480.1582v36.41406c4.52148-4.2832,14.042-8.56836,25.4668-8.56836,14.042,0,24.752,4.52344,31.6543,11.42578,13.32813,13.32813,15.23242,29.27344,15.23242,45.2207C552.51172,599.31445,549.89355,612.64258,537.51758,625.01953Z"/><path d="M435.53613,1035.06836H402.92969v63.78613h-33.084V929.39355h65.69043c35.22559,0,55.93164,24.03906,55.93164,52.83789S470.76172,1035.06836,435.53613,1035.06836Zm-1.666-76.16211H402.92969v46.41211h30.94043c14.99512,0,24.51465-9.2832,24.51465-23.08691C458.38477,968.42676,448.86523,958.90625,433.87012,958.90625Z"/><path d="M584.998,1035.06836H552.39063v63.78613h-33.082V929.39355H584.998c35.22461,0,55.93164,24.03906,55.93164,52.83789S620.22266,1035.06836,584.998,1035.06836Zm-1.666-76.16211H552.39063v46.41211H583.332c14.99414,0,24.51465-9.2832,24.51465-23.08691C607.84668,968.42676,598.32617,958.90625,583.332,958.90625Z"/></svg>